<?xml version="1.0" encoding="UTF-8"?>
<svg xmlns="http://www.w3.org/2000/svg" version="1.1" viewBox="0 0 72 72">
  <!-- Generator: Adobe Illustrator 29.3.0, SVG Export Plug-In . SVG Version: 2.1.0 Build 146)  -->
  <g id="Layer_2">
    <rect x="1.24" y="12.35" width="70.15" height="39.81" fill="#6d6e71" stroke="#231f20" stroke-miterlimit="10"/>
    <path d="M1.3,12.42c2.71,2.83,5.49,5.71,8.96,7.53,2.59,1.36,5.47,2.08,8.33,2.68,10.5,2.18,21.31,2.88,32.01,2.06,2.62-.2,5.26-.5,7.75-1.34,1.94-.66,3.76-1.63,5.52-2.67,3.31-1.95,6.79-4.65,7.1-8.48" fill="#d6d6d6" stroke="#231f20" stroke-miterlimit="10"/>
  </g>
  <g id="Layer_1">
    <circle cx="16.4" cy="56.75" r="7.86" fill="#414042" stroke="#231f20" stroke-miterlimit="10"/>
    <rect x="3.21" y="14.76" width="68.19" height="40.65" fill="#939598" stroke="#231f20" stroke-miterlimit="10"/>
    <rect x=".68" y="52.89" width="2.52" height="2.52" fill="#939598" stroke="#231f20" stroke-miterlimit="10"/>
    <ellipse cx="20.22" cy="55.13" rx="8.44" ry="4.99" fill="#939598" stroke="#231f20" stroke-miterlimit="10"/>
    <ellipse cx="20.22" cy="59.44" rx="8.16" ry="7.92" fill="#414042" stroke="#231f20" stroke-miterlimit="10"/>
    <circle cx="20.22" cy="59.44" r="6.14" fill="#808285" stroke="#231f20" stroke-miterlimit="10"/>
    <path d="M1.05,12.2c.86.9,1.68,1.83,2.46,2.8" fill="#b4b4b5" stroke="#231f20" stroke-miterlimit="10"/>
  </g>
</svg>